<?xml version="1.0" encoding="utf-8"?>
<!-- Generator: Adobe Illustrator 16.0.0, SVG Export Plug-In . SVG Version: 6.00 Build 0)  -->
<!DOCTYPE svg PUBLIC "-//W3C//DTD SVG 1.1//EN" "http://www.w3.org/Graphics/SVG/1.1/DTD/svg11.dtd">
<svg version="1.1" id="Layer_3" xmlns="http://www.w3.org/2000/svg" xmlns:xlink="http://www.w3.org/1999/xlink" x="0px" y="0px"
	 width="1366px" height="900px" viewBox="0 0 1366 900" enable-background="new 0 0 1366 900" xml:space="preserve">
<title>Firefly_Logo</title>
<polygon class="lower-logo left" points="591.5,695.85 698.75,588.45 698.75,491.55 494.6,695.85 698.75,900 698.75,803.1 "/>
<polygon class="lower-logo right" points="806.15,695.85 698.75,803.1 698.75,900 903.05,695.85 698.75,491.55 698.75,588.45 "/>
<polygon class="mid-logo left" points="1050.65,606.75 695.6,247.8 695.6,391.35 1051.1,743.25 "/>
<polygon class="mid-logo right" points="340.55,606.75 695.6,247.8 695.6,391.35 340.1,743.25 "/>
<polygon class="upper-logo left" points="873.2,183.6 695.6,0 695.6,143.55 873.65,320.1 "/>
<polygon class="upper-logo right" points="518.3,183.6 695.9,0 695.9,143.55 517.85,320.1 "/>
<g class="text">
	<path d="M336.932,401.176h-75.935v52.363h73.253v30.91h-73.253v103.739h-32.886V370.266h108.82V401.176z"/>
	<path d="M407.926,370.266v217.923H375.04V370.266H407.926z"/>
	<path d="M534.106,495.317l67.466,92.871h-40.225l-62.244-89.201h-5.928v89.201H460.29V370.266h38.532
		c28.793,0,49.587,5.412,62.385,16.231c14.114,12.046,21.171,27.946,21.171,47.707c0,15.433-4.424,28.7-13.267,39.802
		C560.264,485.108,548.596,492.212,534.106,495.317z M493.175,470.335h10.445c31.144,0,46.718-11.902,46.718-35.709
		c0-22.3-15.151-33.45-45.448-33.45h-11.715V470.335z"/>
	<path d="M754.57,401.176h-87.367v52.363h84.826v30.91h-84.826v72.829h87.367v30.91H634.317V370.266H754.57V401.176z"/>
	<path d="M906.58,401.176h-75.935v52.363h73.253v30.91h-73.253v103.739H797.76V370.266h108.82V401.176z"/>
	<path d="M977.574,370.266v187.013h64.078v30.91h-96.964V370.266H977.574z"/>
	<path d="M1098.392,494.047l-71.136-123.781h37.826l49.823,87.084l49.964-87.084h37.826l-71.418,123.781v94.142h-32.886V494.047z"/>
</g>
    <style>
  .lower-logo {
  opacity: 1;
  -webkit-transform: translate(-5px, -200px);
  -moz-transform: translate(-5px, -200px);
  -o-transform: translate(-5px, -200px);
  transform: translate(-5px, -200px);
  animation-fill-mode: forwards;
  animation-name: glide-down;
  animation-duration: 1s; 
  animation-timing-function: ease-in-out; 
  animation-delay: 0;
  }
  @-webkit-keyframes glide-down {
  0% {
  opacity: 1;
  -webkit-transform: translate(-5px, -200px);
  -moz-transform: translate(-5px, -200px);
  transform: translate(-5px, -200px);
  }
  100% {
  opacity: 100;
  -webkit-transform: translate(-5px, 0px);
  -moz-transform: translate(-5px, 0px);
  transform: translate(-5px, 0px);
  }
  }
      
  .left {
    fill: #0a8171;
  }
      
  .right {
    fill: #0b8b7b;
  }
      
  .upper-logo {
  opacity: 1;
  -webkit-transform: translate(-5px, 200px);
  -moz-transform: translate(-5px, 200px);
  transform: translate(-5px, 200px);
  animation-fill-mode: forwards;
  animation-name: glide-up;
  animation-duration: 1s; 
  animation-timing-function: ease-in-out; 
  animation-delay: 0;
  }
  @-webkit-keyframes glide-up {
  0% {
  opacity: 1;
  -webkit-transform: translate(-5px, 200px);
  -moz-transform: translate(-5px, 200px);
  transform: translate(-5px, 200px);
  }
  100% {
  opacity: 100;
  -webkit-transform: translate(-5px, 0px);
  -moz-transform: translate(-5px, 0px);
  transform: translate(-5px, 0px);
  }
  }
  .mid-logo {
  opacity: 1;
  -webkit-transform-origin: 50% 50%;
  -moz-transform-origin: 50% 50%;
  transform-origin: 50% 50%;
  animation-fill-mode: forwards;
  animation-name: rotate;
  animation-duration: 1s; 
  animation-timing-function: ease-in-out; 
  animation-delay: 0;
  }
      
  .text path {
      fill: #ffffff;
      }
      
  .whole-logo {
    -webkit-transform: translate(0px, 250px);
    }
</style>
</svg>
