<?xml version="1.0" encoding="utf-8"?>
<!-- Generator: Adobe Illustrator 16.0.0, SVG Export Plug-In . SVG Version: 6.00 Build 0)  -->
<!DOCTYPE svg PUBLIC "-//W3C//DTD SVG 1.1//EN" "http://www.w3.org/Graphics/SVG/1.1/DTD/svg11.dtd">
<svg version="1.1" id="Layer_1" xmlns="http://www.w3.org/2000/svg" xmlns:xlink="http://www.w3.org/1999/xlink" x="0px" y="0px"
	 width="720px" height="400px" viewBox="0 0 720 400" enable-background="new 0 0 720 400" xml:space="preserve">
<g class="graph2">
	<g>
		<path fill="#34B297" d="M-0.873,263.1c0,0,54.345-35.915,103.941,0c49.597,35.914,128.609,48.228,173.758,26.68
			c45.149-21.55,103.638-75.646,205.226-74.252c101.586,1.398,196.805,55.781,238.468-15.023L720.873,400H-0.873V263.1z"/>
		<path fill="#189B7D" d="M-0.873,279.518c0,0,68.37-26.252,120.701,20.736c52.333,46.988,106.717,67.511,182.651,39.805
			c75.933-27.706,138.526-125.188,227.8-148.789c89.272-23.602,190.24,73.88,190.24,73.88L720.873,400H-0.873V279.518z"/>
	</g>
</g>
  <style>
    .graph2 {
      opacity: .3;
    }
  </style>
</svg>
