<?xml version="1.0" encoding="utf-8"?>
<!-- Generator: Adobe Illustrator 16.0.0, SVG Export Plug-In . SVG Version: 6.00 Build 0)  -->
<!DOCTYPE svg PUBLIC "-//W3C//DTD SVG 1.1//EN" "http://www.w3.org/Graphics/SVG/1.1/DTD/svg11.dtd">
<svg version="1.1" id="Layer_1" xmlns="http://www.w3.org/2000/svg" xmlns:xlink="http://www.w3.org/1999/xlink" x="0px" y="0px"
	 width="720px" height="400px" viewBox="0 0 720 400" enable-background="new 0 0 720 400" xml:space="preserve">
<g>
	<polyline class="pulse" fill="none" stroke="#34B297" stroke-miterlimit="10" points="0.264,169.95 14.398,169.95 23.267,178.818 53.081,178.818 
		53.081,174.384 65.44,174.384 72.627,181.571 83.021,191.967 112.181,191.967 114.866,191.967 131.522,191.967 143.878,191.967 
		143.878,178.009 159.234,193.366 175.575,193.366 185.192,183.752 206.211,183.752 215.951,174.013 230.914,174.013 
		244.406,187.504 250.466,181.444 261.537,181.444 271.043,171.936 287.863,171.936 287.863,154.907 303.443,154.907 
		316.533,141.82 343.737,141.82 350.625,134.932 357.598,141.905 373.556,157.862 381.882,149.535 394.341,149.535 404.235,159.431 
		404.235,182.311 424.863,182.311 436.952,170.22 446.622,179.89 459.246,167.265 495.781,167.265 514.046,167.265 531.24,167.265 
		543.863,179.89 560.614,196.64 573.778,183.477 586.758,196.457 604.843,196.457 614.606,186.695 653.465,225.556 673.074,225.556 
		683.148,215.482 696.579,228.916 696.579,123.747 711.104,109.221 720.088,109.221 	"/>
	<polyline class="pulse2" fill="none" stroke="#ED7774" stroke-miterlimit="10" points="0.088,140.401 10.102,140.401 14.131,140.401 
		22.608,148.879 32.849,138.637 39.752,145.538 48.548,154.336 60.872,154.336 67.619,147.59 81.397,147.59 88.374,154.564 
		102.999,169.193 125.343,169.193 125.343,191.967 154.222,220.845 179.747,246.368 226.078,246.368 242.423,230.026 
		251.06,230.026 262.025,219.061 272.014,219.061 284.348,206.728 299.414,206.728 310.769,218.082 336.012,192.837 
		353.547,210.373 377.585,210.373 384.128,203.826 392.578,212.276 413.906,190.949 430.104,207.149 439.637,197.619 
		465.425,197.619 495.781,167.265 518.204,189.689 543.856,164.035 557.255,164.035 563.089,169.868 576.536,156.418 
		585.099,164.98 600.414,180.294 600.414,218.572 617.471,235.63 645.934,235.63 645.934,175.055 666.084,154.903 666.084,126.701 
		690.265,102.524 698.325,102.524 713.233,87.614 720.088,87.614 	"/>
</g>
  <style>
    .pulse {
      stroke-dasharray: 1200;
      stroke-dashoffset: 1200;
      animation: dash 1.5s 1s linear forwards;
    }
    
    .pulse2 {
      stroke-dasharray: 1200;
      stroke-dashoffset: 1200;
      animation: dash 1s 1.5s linear forwards;
    }

    @keyframes dash {
      0% {
        stroke-dashoffset: 1200;
      }
    
      100% {
        stroke-dashoffset: 0;
      }
    }
  </style>
</svg>
