<?xml version="1.0" encoding="utf-8"?>
<!-- Generator: Adobe Illustrator 16.0.0, SVG Export Plug-In . SVG Version: 6.00 Build 0)  -->
<!DOCTYPE svg PUBLIC "-//W3C//DTD SVG 1.1//EN" "http://www.w3.org/Graphics/SVG/1.1/DTD/svg11.dtd">
<svg version="1.1" id="Layer_1" xmlns="http://www.w3.org/2000/svg" xmlns:xlink="http://www.w3.org/1999/xlink" x="0px" y="0px"
	 width="1366px" height="900px" viewBox="0 0 1366 900" enable-background="new 0 0 1366 900" xml:space="preserve">
<line fill="none" stroke="#0A8B7A" stroke-width="18" stroke-miterlimit="10" x1="401.627" y1="595.413" x2="584.833" y2="595.413"/>
<line fill="none" stroke="#0A8B7A" stroke-width="18" stroke-miterlimit="10" x1="401.627" y1="442.198" x2="584.833" y2="442.198"/>
<line fill="none" stroke="#0A8B7A" stroke-width="18" stroke-miterlimit="10" x1="401.627" y1="279.004" x2="584.833" y2="279.004"/>
<path fill="#0A8B7A" stroke="#0A8B7A" stroke-width="16" stroke-miterlimit="10" d="M903.541,382.639v420.989
	c0,21.086-16.434,38.244-36.649,38.244H355.517c-20.211,0-36.654-17.158-36.654-38.244V96.372c0-21.09,16.443-38.245,36.654-38.245
	h511.375c20.216,0,36.649,17.155,36.649,38.245V236.96l15.803-16.429V96.372c0-30.183-23.486-54.658-52.452-54.658H355.517
	c-28.965,0-52.456,24.476-52.456,54.658v707.256c0,30.182,23.491,54.658,52.456,54.658h511.375
	c28.966,0,52.452-24.477,52.452-54.658V366.209L903.541,382.639z"/>
<path fill="#0A8B7A" stroke="#0A8B7A" stroke-width="12" stroke-miterlimit="10" d="M1121.11,129.463
	c-4.396-7.373-11.095-15.888-18.903-23.991c-9.436-9.806-27.359-26.251-41.278-26.251c-5.125,0-9.846,1.983-13.279,5.554
	l-60.576,62.914l-292.29,304.299c-6.335,6.58-10.697,14.434-13.132,22.777l-64.187,129.674l128.891-61.143
	c8.573-2.501,16.436-7.213,22.916-13.938l297.768-309.972l55.105-57.243C1127.338,156.741,1131.373,146.695,1121.11,129.463z
	 M682.284,508.466c2.516,7.638,6.651,14.818,12.499,20.892c5.154,5.363,11.212,9.441,17.793,12.151l-64.731,33.404L682.284,508.466z
	 M758.1,517.754c-6.968,7.229-16.226,11.211-26.08,11.211c-9.846,0-19.104-3.981-26.063-11.211
	c-6.944-7.221-10.771-16.838-10.771-27.081c0-10.249,3.827-19.867,10.771-27.081l271.812-282.311
	c3.826,8.804,11.08,18.914,22.159,30.439c7.068,7.337,18.858,18.373,30.184,23.478L758.1,517.754z M1110.973,150.537l-67.659,70.283
	c-0.594,0.617-1.475,0.737-2.107,0.737c-3.271,0-13.765-4.48-30.106-21.45c-18.98-19.74-22.306-30.988-19.938-33.453l67.667-70.274
	c0.625-0.657,1.589-0.745,2.114-0.745c3.264,0,13.766,4.48,30.099,21.442c6.845,7.117,12.917,14.775,16.645,21.026
	C1108.272,139.097,1113.434,147.977,1110.973,150.537z"/>
</svg>
